<?xml version="1.0" standalone="yes"?>
<svg xmlns="http://www.w3.org/2000/svg" width="64" height="64">
<path style="fill:#07050d; stroke:none;" d="M0 0L0 64L64 64L64 0L0 0z"/>
<path style="fill:#613f8d; stroke:none;" d="M31.0787 6.34568C17.6151 10.1091 16.0955 48.1638 34.9853 42.3434C46.0403 38.9371 43.909 22.8704 39.8688 15C38.4001 12.1389 35.2543 5.17849 31.0787 6.34568z"/>
<path style="fill:#224227; stroke:none;" d="M13.6667 7.33333L14.3333 7.66667L13.6667 7.33333M49.6667 7.33333L50.3333 7.66667L49.6667 7.33333z"/>
<path style="fill:#613f8d; stroke:none;" d="M14 8C15.5846 20.5387 8.51122 40.4034 25 44C22.3283 38.8263 18.8775 35.1748 18.5988 29C18.1922 19.9939 27.4061 10.4301 14 8z"/>
<path style="fill:#224227; stroke:none;" d="M17 8L18 9L17 8M46 8L47 9L46 8z"/>
<path style="fill:#613f8d; stroke:none;" d="M39 44C55.5942 41.3641 48.4841 19.9951 50 8C36.5233 10.4429 45.9108 19.9888 45.3904 29C45.0415 35.0438 41.6238 38.9124 39 44z"/>
<path style="fill:#224227; stroke:none;" d="M19 9L20 10L19 9M44 9L45 10L44 9M14 11L15 12L14 11M22 11L23 12L22 11M41 11L42 12L41 11M49 11L50 12L49 11M39 14L40 15L39 14M6 15L7 16L6 15z"/>
<path style="fill:#613f8d; stroke:none;" d="M7 15C7.9749 22.2398 7.3352 35.8407 14 40C10.9097 31.5208 16.6471 18.4842 7 15z"/>
<path style="fill:#224227; stroke:none;" d="M8 15L9 16L8 15M55 15L56 16L55 15z"/>
<path style="fill:#613f8d; stroke:none;" d="M56 15C47.7526 19.4363 52.9925 31.7892 50 40C55.6141 36.7538 57.7958 20.9138 56 15z"/>
<path style="fill:#224227; stroke:none;" d="M57 15L58 16L57 15M22 18L23 19L22 18M41 18L42 19L41 18M1 20L2 21L1 20M62 20L63 21L62 20z"/>
<path style="fill:#613f8d; stroke:none;" d="M1 21L9 39C7.73819 32.4935 9.05558 21.6277 1 21z"/>
<path style="fill:#224227; stroke:none;" d="M21 21L22 22L21 21z"/>
<path style="fill:#613f8d; stroke:none;" d="M55 39L56 39L63 21C54.9444 21.6277 56.2618 32.4935 55 39z"/>
<path style="fill:#224227; stroke:none;" d="M1 22L2 23L1 22M12 24L13 25L12 24M51 24L52 25L51 24M7 26L7 29L8 29L7 26M18 26L19 27L18 26M45 26L46 27L45 26M20.3333 27.6667L20.6667 28.3333L20.3333 27.6667M43.3333 27.6667L43.6667 28.3333L43.3333 27.6667M56 27L57 28L56 27M18 29L19 30L18 29M45 29L46 30L45 29M56.3333 30.6667L56.6667 31.3333L56.3333 30.6667M4 31L5 32L4 31M7 31L8 32L7 31M13 31L14 32L13 31M50 31L51 32L50 31M59 31L60 32L59 31M5 35L6 36L5 35M19 35L20 36L19 35M58 35L59 36L58 35M8 36L9 37L8 36M14 36L15 37L14 36M57 36L58 37L57 36M43 37L44 38L43 37M11 38L12 39L11 38M23 38L24 39L23 38M40 38L41 39L40 38M13.6667 40.3333L14.3333 40.6667L13.6667 40.3333M22 40L23 41L22 40M41 40L42 41L41 40M49.6667 40.3333L50.3333 40.6667L49.6667 40.3333M46 41L47 42L46 41M22 43L23 44L22 43M25.6667 43.3333L26.3333 43.6667L25.6667 43.3333M37.6667 43.3333L38.3333 43.6667L37.6667 43.3333M42 43L43 44L42 43M13 45L13 46L15 46L15 47L11 46L11 47L16 45L13 45M19 45L19 46L22 46L19 45M25 45L26 46L25 45z"/>
<path style="fill:#3f8d4e; stroke:none;" d="M26 45L24 46L24 49C20.3199 49.7862 20.3449 52.573 20 56C25.2399 54.3914 27.1423 50.3633 26 45z"/>
<path style="fill:#224227; stroke:none;" d="M27 45L28 46L27 45M31 45L31 46L36 48L31 45M36 45L37 46L36 45z"/>
<path style="fill:#3f8d4e; stroke:none;" d="M37 45L38 54L39 54L40 52L40 55L44 56L41 49L43 50L37 45z"/>
<path style="fill:#224227; stroke:none;" d="M38 45L39 46L38 45M42 45L42 46L46 47L46 46L42 45M48 45L53 47L53 46L49 47L49 46L51 46L48 45z"/>
<path style="fill:#3f8d4e; stroke:none;" d="M12 46L13 47L12 46z"/>
<path style="fill:#539765; stroke:none;" d="M13 46L14 47L13 46z"/>
<path style="fill:#3f8d4e; stroke:none;" d="M14 46L15 47L14 46M16 50L19 50L18 47L21 47L16 50z"/>
<path style="fill:#224227; stroke:none;" d="M23 46L22 48L23 46z"/>
<path style="fill:#539765; stroke:none;" d="M25 46L26 47L25 46z"/>
<path style="fill:#224227; stroke:none;" d="M29 46L28 48L29 46z"/>
<path style="fill:#3f8d4e; stroke:none;" d="M28 51L29 51L29 49L30 49L29 56L30 58L34 58L35 56L35 55L33 49L35 51C36.2721 45.1141 29.452 46.1015 28 51z"/>
<path style="fill:#539765; stroke:none;" d="M32 46L33 47L32 46M38 46L39 47L38 46z"/>
<path style="fill:#224227; stroke:none;" d="M40 46L41 47L40 46z"/>
<path style="fill:#3f8d4e; stroke:none;" d="M43 46L45 48L45 46L43 46M49 46L50 47L49 46z"/>
<path style="fill:#539765; stroke:none;" d="M50 46L51 47L50 46z"/>
<path style="fill:#3f8d4e; stroke:none;" d="M51 46L52 47L51 46z"/>
<path style="fill:#539765; stroke:none;" d="M18.3333 47.6667L18.6667 48.3333L18.3333 47.6667z"/>
<path style="fill:#224227; stroke:none;" d="M20 47L21 48L20 47z"/>
<path style="fill:#539765; stroke:none;" d="M23 47L23 49L25 47L23 47z"/>
<path style="fill:#224227; stroke:none;" d="M26 47L27 48L26 47z"/>
<path style="fill:#539765; stroke:none;" d="M30 47L32 49L30 47M33 47L34 48L33 47z"/>
<path style="fill:#224227; stroke:none;" d="M37.3333 47.6667L37.6667 48.3333L37.3333 47.6667z"/>
<path style="fill:#539765; stroke:none;" d="M39 47L41 49L39 47z"/>
<path style="fill:#224227; stroke:none;" d="M41 47L42 48L41 47M43 47L44 48L43 47z"/>
<path style="fill:#539765; stroke:none;" d="M45 47L47 50L45 47z"/>
<path style="fill:#3f8d4e; stroke:none;" d="M46 47L48 50L46 47z"/>
<path style="fill:#224227; stroke:none;" d="M19 48L20 49L19 48M21 48L22 49L21 48z"/>
<path style="fill:#539765; stroke:none;" d="M25 48L26 49L25 48M38 48L39 49L38 48z"/>
<path style="fill:#224227; stroke:none;" d="M42 48L43 49L42 48M44 48L45 49L44 48z"/>
<path style="fill:#539765; stroke:none;" d="M17 49L18 50L17 49M22 49L23 54L24 54L25 52L22 49M24 49L25 50L24 49z"/>
<path style="fill:#224227; stroke:none;" d="M27 49L27 52L28 52L27 49z"/>
<path style="fill:#539765; stroke:none;" d="M29 49L29 55L30 55L29 49M33 49L33 55C35.7166 53.0234 35.7166 50.9766 33 49z"/>
<path style="fill:#224227; stroke:none;" d="M36 49L36 52L37 52L36 49z"/>
<path style="fill:#539765; stroke:none;" d="M41 49L41 51L43 51L41 49z"/>
<path style="fill:#3f8d4e; stroke:none;" d="M45 49L46 50L45 49z"/>
<path style="fill:#224227; stroke:none;" d="M48 49L49 50L48 49M16 50L16 51L19 51L16 50M20 50L21 51L20 50M43 50L44 51L43 50M45 50L45 51L48 51L45 50z"/>
<path style="fill:#539765; stroke:none;" d="M32 51L33 52L32 51M40 51L41 52L40 51M21 52L22 53L21 52M39 52L39 54L41 54L39 52M42 52L43 53L42 52z"/>
<path style="fill:#224227; stroke:none;" d="M19 53L19 56L20 56L19 53z"/>
<path style="fill:#3f8d4e; stroke:none;" d="M28 53L29 54L28 53M35 53L36 54L35 53z"/>
<path style="fill:#539765; stroke:none;" d="M43 53L44 54L43 53z"/>
<path style="fill:#224227; stroke:none;" d="M44 53L44 56L45 56L44 53z"/>
<path style="fill:#539765; stroke:none;" d="M20 54L21 55L20 54z"/>
<path style="fill:#224227; stroke:none;" d="M24.6667 54.3333L25.3333 54.6667L24.6667 54.3333M28.3333 54.6667L28.6667 55.3333L28.3333 54.6667M35 54L36 55L35 54M39 54L40 55L39 54M22 55L23 56L22 55M41 55L42 56L41 55M29.3333 56.6667L29.6667 57.3333L29.3333 56.6667z"/>
<path style="fill:#539765; stroke:none;" d="M30 56L31 57L30 56M33 56L34 57L33 56z"/>
<path style="fill:#224227; stroke:none;" d="M34.3333 56.6667L34.6667 57.3333L34.3333 56.6667z"/>
<path style="fill:#539765; stroke:none;" d="M31 57L31 59L33 59L33 57L31 57z"/>
<path style="fill:#224227; stroke:none;" d="M30 58L31 59L30 58M33 58L34 59L33 58M31.6667 59.3333L32.3333 59.6667L31.6667 59.3333z"/>
</svg>
