<?xml version="1.0" standalone="yes"?>
<svg xmlns="http://www.w3.org/2000/svg" width="172" height="150">
<path style="fill:#020202; stroke:none;" d="M0 0L0 44C5.24109 44.0006 13.4558 43.2633 17.4113 47.5131C20.6848 51.0303 19.8436 57.5897 20.4244 62C22.1408 75.0344 21.3919 84.0715 28 96C5.81819 86.2434 16.5039 59.6754 0 46L0 150L85 150C79.5298 141.214 71.4537 132.154 75.0586 121C76.6595 116.047 81.2365 110.765 87 111.383C108.697 113.71 92.1177 141.707 87 150L172 150L172 45L171 45C161.97 61.2833 162.723 87.765 144 96C150.915 84.5033 150.197 74.8228 151.715 62C152.242 57.5466 151.261 51.0886 154.589 47.5131C158.544 43.2633 166.759 44.0006 172 44L172 0L87 0C91.5667 7.30859 97.4527 13.7364 102.136 21C112.993 37.8402 120.776 58.9431 115.36 79C111.668 92.6708 100.167 105.318 85 104.87C70.8599 104.453 59.8993 91.8968 56.6651 79C51.5334 58.5364 58.7414 38.1154 70.0031 21C74.735 13.8085 80.4568 7.26471 85 0L0 0z"/>
<path style="fill:#5f5f5f; stroke:none;" d="M84 1L84 2L88 2L84 1z"/>
<path style="fill:#fdfdfd; stroke:none;" d="M85.0756 2.34567C78.9515 4.03799 71.9283 17.7857 68.8611 23C59.3681 39.1385 53.0533 57.0532 56.4645 76C59.7187 94.0749 74.9225 108.241 94 103.073C126.768 94.1959 117.263 46.8989 104.799 26C101.988 21.2853 91.6708 0.523193 85.0756 2.34567z"/>
<path style="fill:#303030; stroke:none;" d="M83 2L84 3L83 2M88 2L89 3L88 2M82 3L83 4L82 3M89 3L90 4L89 3z"/>
<path style="fill:#a1a1a1; stroke:none;" d="M81 5L82 6L81 5M90 5L91 6L90 5M80 6L81 7L80 6M91 6L92 7L91 6z"/>
<path style="fill:#5f5f5f; stroke:none;" d="M34.6667 7.33333L35.3333 7.66667L34.6667 7.33333z"/>
<path style="fill:#303030; stroke:none;" d="M36 7L37 8L36 7z"/>
<path style="fill:#5f5f5f; stroke:none;" d="M79 7L80 8L79 7M92 7L93 8L92 7M136.667 7.33333L137.333 7.66667L136.667 7.33333z"/>
<path style="fill:#303030; stroke:none;" d="M34 8L35 9L34 8z"/>
<path style="fill:#fdfdfd; stroke:none;" d="M35 8C37.9172 15.1124 40.6164 22.208 40.9606 30C41.9918 53.3418 24.2226 95.7409 57 105.56C61.6378 106.95 66.2066 106.999 71 107C53.3345 91.0617 45.0995 71.9805 51.7454 48C53.5371 41.5349 62.7182 28.4218 61.1836 22.1844C59.3948 14.9136 41.4677 9.11365 35 8z"/>
<path style="fill:#5f5f5f; stroke:none;" d="M38 8L39 9L38 8z"/>
<path style="fill:#303030; stroke:none;" d="M78 8L77 10L78 8M93 8L94 9L93 8z"/>
<path style="fill:#5f5f5f; stroke:none;" d="M133 8L134 9L133 8z"/>
<path style="fill:#a1a1a1; stroke:none;" d="M134 8L135 9L134 8z"/>
<path style="fill:#fdfdfd; stroke:none;" d="M109 22L109 23C125.495 46.1703 131.06 90.6549 101 106L101 107C105.793 106.999 110.362 106.95 115 105.56C147.806 95.7301 130.01 53.3023 131.039 30C131.383 22.2111 134.222 15.163 137 8C126.79 10.3631 117.262 15.6502 109 22z"/>
<path style="fill:#303030; stroke:none;" d="M137 8L138 9L137 8z"/>
<path style="fill:#a1a1a1; stroke:none;" d="M35 9L36 10L35 9M40 9L41 10L40 9z"/>
<path style="fill:#5f5f5f; stroke:none;" d="M41 9L42 10L41 9z"/>
<path style="fill:#a1a1a1; stroke:none;" d="M78 9L79 10L78 9z"/>
<path style="fill:#5f5f5f; stroke:none;" d="M130 9L131 10L130 9z"/>
<path style="fill:#a1a1a1; stroke:none;" d="M131 9L132 10L131 9M136 9L137 10L136 9z"/>
<path style="fill:#303030; stroke:none;" d="M35 10L36 11L35 10z"/>
<path style="fill:#a1a1a1; stroke:none;" d="M43 10L44 11L43 10z"/>
<path style="fill:#303030; stroke:none;" d="M44 10L45 11L44 10z"/>
<path style="fill:#a1a1a1; stroke:none;" d="M77 10L78 11L77 10M94 10L95 11L94 10z"/>
<path style="fill:#303030; stroke:none;" d="M127 10L128 11L127 10z"/>
<path style="fill:#a1a1a1; stroke:none;" d="M128 10L129 11L128 10z"/>
<path style="fill:#303030; stroke:none;" d="M136 10L137 11L136 10z"/>
<path style="fill:#a1a1a1; stroke:none;" d="M36 11L37 12L36 11M45 11L46 12L45 11z"/>
<path style="fill:#303030; stroke:none;" d="M46 11L47 12L46 11z"/>
<path style="fill:#5f5f5f; stroke:none;" d="M76 11L77 12L76 11M95 11L96 12L95 11z"/>
<path style="fill:#303030; stroke:none;" d="M125 11L126 12L125 11z"/>
<path style="fill:#a1a1a1; stroke:none;" d="M126 11L127 12L126 11M135 11L136 12L135 11z"/>
<path style="fill:#303030; stroke:none;" d="M36 12L37 13L36 12z"/>
<path style="fill:#a1a1a1; stroke:none;" d="M47 12L48 13L47 12z"/>
<path style="fill:#5f5f5f; stroke:none;" d="M48 12L49 13L48 12z"/>
<path style="fill:#303030; stroke:none;" d="M75 12L76 13L75 12M96 12L97 13L96 12M123 12L124 13L123 12z"/>
<path style="fill:#a1a1a1; stroke:none;" d="M124 12L125 13L124 12z"/>
<path style="fill:#303030; stroke:none;" d="M135 12L136 13L135 12z"/>
<path style="fill:#a1a1a1; stroke:none;" d="M37 13L38 14L37 13z"/>
<path style="fill:#5f5f5f; stroke:none;" d="M50 13L51 14L50 13z"/>
<path style="fill:#a1a1a1; stroke:none;" d="M75 13L76 14L75 13M96 13L97 14L96 13z"/>
<path style="fill:#303030; stroke:none;" d="M121 13L122 14L121 13z"/>
<path style="fill:#a1a1a1; stroke:none;" d="M122 13L123 14L122 13z"/>
<path style="fill:#5f5f5f; stroke:none;" d="M37 14L38 15L37 14z"/>
<path style="fill:#a1a1a1; stroke:none;" d="M51 14L52 15L51 14z"/>
<path style="fill:#303030; stroke:none;" d="M52 14L53 15L52 14z"/>
<path style="fill:#a1a1a1; stroke:none;" d="M74 14L75 15L74 14M97 14L98 15L97 14z"/>
<path style="fill:#303030; stroke:none;" d="M119 14L120 15L119 14z"/>
<path style="fill:#a1a1a1; stroke:none;" d="M120 14L121 15L120 14z"/>
<path style="fill:#5f5f5f; stroke:none;" d="M134 14L135 15L134 14z"/>
<path style="fill:#a1a1a1; stroke:none;" d="M53 15L54 16L53 15z"/>
<path style="fill:#303030; stroke:none;" d="M54 15L55 16L54 15z"/>
<path style="fill:#5f5f5f; stroke:none;" d="M73 15L74 16L73 15M98 15L99 16L98 15z"/>
<path style="fill:#303030; stroke:none;" d="M117 15L118 16L117 15z"/>
<path style="fill:#a1a1a1; stroke:none;" d="M118 15L119 16L118 15z"/>
<path style="fill:#303030; stroke:none;" d="M134 15L135 16L134 15z"/>
<path style="fill:#a1a1a1; stroke:none;" d="M38 16L39 17L38 16M55 16L56 17L55 16z"/>
<path style="fill:#5f5f5f; stroke:none;" d="M116 16L117 17L116 16z"/>
<path style="fill:#a1a1a1; stroke:none;" d="M133.333 16.6667L133.667 17.3333L133.333 16.6667z"/>
<path style="fill:#5f5f5f; stroke:none;" d="M38 17L39 18L38 17z"/>
<path style="fill:#a1a1a1; stroke:none;" d="M56 17L57 18L56 17z"/>
<path style="fill:#303030; stroke:none;" d="M57 17L58 18L57 17z"/>
<path style="fill:#a1a1a1; stroke:none;" d="M72 17L73 18L72 17M99 17L100 18L99 17z"/>
<path style="fill:#303030; stroke:none;" d="M114 17L115 18L114 17z"/>
<path style="fill:#a1a1a1; stroke:none;" d="M115 17L116 18L115 17z"/>
<path style="fill:#303030; stroke:none;" d="M38 18L39 19L38 18z"/>
<path style="fill:#5f5f5f; stroke:none;" d="M58 18L59 19L58 18M71 18L72 19L71 18M100 18L101 19L100 18z"/>
<path style="fill:#a1a1a1; stroke:none;" d="M113 18L114 19L113 18z"/>
<path style="fill:#303030; stroke:none;" d="M133 18L134 19L133 18z"/>
<path style="fill:#a1a1a1; stroke:none;" d="M59 19L60 20L59 19z"/>
<path style="fill:#303030; stroke:none;" d="M101 19L102 20L101 19M111 19L112 20L111 19z"/>
<path style="fill:#a1a1a1; stroke:none;" d="M112 19L113 20L112 19M39 20L40 21L39 20z"/>
<path style="fill:#303030; stroke:none;" d="M61 20L62 21L61 20z"/>
<path style="fill:#a1a1a1; stroke:none;" d="M70 20L71 21L70 20M101 20L102 21L101 20z"/>
<path style="fill:#303030; stroke:none;" d="M110 20L111 21L110 20z"/>
<path style="fill:#a1a1a1; stroke:none;" d="M132 20L133 21L132 20z"/>
<path style="fill:#5f5f5f; stroke:none;" d="M39 21L40 22L39 21M62 21L63 22L62 21z"/>
<path style="fill:#303030; stroke:none;" d="M69 21L70 22L69 21M102 21L103 22L102 21z"/>
<path style="fill:#5f5f5f; stroke:none;" d="M109 21L110 22L109 21M132 21L133 22L132 21z"/>
<path style="fill:#303030; stroke:none;" d="M39 22L40 23L39 22z"/>
<path style="fill:#a1a1a1; stroke:none;" d="M62 22L63 23L62 22M102 22L103 23L102 22z"/>
<path style="fill:#303030; stroke:none;" d="M132 22L133 23L132 22z"/>
<path style="fill:#5f5f5f; stroke:none;" d="M62 23L63 24L62 23z"/>
<path style="fill:#a1a1a1; stroke:none;" d="M68 23L69 24L68 23z"/>
<path style="fill:#5f5f5f; stroke:none;" d="M103 23L104 24L103 23M109 23L110 24L109 23z"/>
<path style="fill:#a1a1a1; stroke:none;" d="M61 24L62 25L61 24z"/>
<path style="fill:#303030; stroke:none;" d="M67 24L68 25L67 24M104 24L105 25L104 24z"/>
<path style="fill:#a1a1a1; stroke:none;" d="M110 24L111 25L110 24M40.3333 25.6667L40.6667 26.3333L40.3333 25.6667z"/>
<path style="fill:#5f5f5f; stroke:none;" d="M61 25L62 26L61 25z"/>
<path style="fill:#a1a1a1; stroke:none;" d="M67 25L68 26L67 25M104 25L105 26L104 25z"/>
<path style="fill:#5f5f5f; stroke:none;" d="M110 25L111 26L110 25z"/>
<path style="fill:#a1a1a1; stroke:none;" d="M131.333 25.6667L131.667 26.3333L131.333 25.6667M60 26L61 27L60 26z"/>
<path style="fill:#303030; stroke:none;" d="M66 26L67 27L66 26M105 26L106 27L105 26z"/>
<path style="fill:#a1a1a1; stroke:none;" d="M111 26L112 27L111 26z"/>
<path style="fill:#5f5f5f; stroke:none;" d="M40.3333 27.6667L40.6667 28.3333L40.3333 27.6667z"/>
<path style="fill:#303030; stroke:none;" d="M60 27L61 28L60 27z"/>
<path style="fill:#a1a1a1; stroke:none;" d="M66 27L67 28L66 27M105 27L106 28L105 27z"/>
<path style="fill:#303030; stroke:none;" d="M111 27L112 28L111 27z"/>
<path style="fill:#5f5f5f; stroke:none;" d="M131.333 27.6667L131.667 28.3333L131.333 27.6667z"/>
<path style="fill:#303030; stroke:none;" d="M15 30L18 29L15 30z"/>
<path style="fill:#a1a1a1; stroke:none;" d="M59 28L60 29L59 28z"/>
<path style="fill:#5f5f5f; stroke:none;" d="M65 28L66 29L65 28M106 28L107 29L106 28z"/>
<path style="fill:#a1a1a1; stroke:none;" d="M112 28L113 29L112 28z"/>
<path style="fill:#303030; stroke:none;" d="M154 28L154 29L157 30L154 28z"/>
<path style="fill:#fdfdfd; stroke:none;" d="M16 29C19.1985 36.6825 22.6202 43.609 23.7106 52C25.866 68.5857 20.8282 89.8727 39 99C34.9292 90.2809 30.9343 82.9411 31.0046 73C31.0704 63.6947 39.2191 44.6085 33.9722 36.3904C30.9259 31.6191 21.192 29.7668 16 29z"/>
<path style="fill:#a1a1a1; stroke:none;" d="M19 29L20 30L19 29z"/>
<path style="fill:#5f5f5f; stroke:none;" d="M20 29L21 30L20 29z"/>
<path style="fill:#303030; stroke:none;" d="M21 29L22 30L21 29M40 29L40 32L41 32L40 29M59 29L60 30L59 29M112 29L113 30L112 29M131 29L131 32L132 32L131 29M150 29L151 30L150 29z"/>
<path style="fill:#5f5f5f; stroke:none;" d="M151 29L152 30L151 29z"/>
<path style="fill:#a1a1a1; stroke:none;" d="M152 29L153 30L152 29z"/>
<path style="fill:#fdfdfd; stroke:none;" d="M133 99C151.151 89.5829 146.224 68.7845 148.286 52C149.325 43.5505 152.782 36.7299 156 29C150.591 29.729 141.224 31.3767 138.028 36.3904C132.705 44.741 140.993 64.4724 140.992 74C140.992 83.4956 136.88 90.6893 133 99z"/>
<path style="fill:#a1a1a1; stroke:none;" d="M16 30L17 31L16 30M22.6667 30.3333L23.3333 30.6667L22.6667 30.3333M58 30L59 31L58 30z"/>
<path style="fill:#5f5f5f; stroke:none;" d="M64 30L65 31L64 30M107 30L108 31L107 30z"/>
<path style="fill:#a1a1a1; stroke:none;" d="M113 30L114 31L113 30z"/>
<path style="fill:#303030; stroke:none;" d="M147 30L148 31L147 30z"/>
<path style="fill:#a1a1a1; stroke:none;" d="M148 30L149 31L148 30M155 30L156 31L155 30M25 31L26 32L25 31z"/>
<path style="fill:#5f5f5f; stroke:none;" d="M26 31L27 32L26 31z"/>
<path style="fill:#303030; stroke:none;" d="M58 31L59 32L58 31M113 31L114 32L113 31z"/>
<path style="fill:#5f5f5f; stroke:none;" d="M145 31L146 32L145 31z"/>
<path style="fill:#a1a1a1; stroke:none;" d="M17 32L18 33L17 32z"/>
<path style="fill:#5f5f5f; stroke:none;" d="M28 32L29 33L28 32z"/>
<path style="fill:#a1a1a1; stroke:none;" d="M57 32L58 33L57 32z"/>
<path style="fill:#5f5f5f; stroke:none;" d="M63 32L64 33L63 32M108 32L109 33L108 32z"/>
<path style="fill:#a1a1a1; stroke:none;" d="M114 32L115 33L114 32M143 32L144 33L143 32z"/>
<path style="fill:#5f5f5f; stroke:none;" d="M154 32L155 33L154 32z"/>
<path style="fill:#303030; stroke:none;" d="M17 33L18 34L17 33z"/>
<path style="fill:#5f5f5f; stroke:none;" d="M30 33L31 34L30 33M57 33L58 34L57 33z"/>
<path style="fill:#303030; stroke:none;" d="M114 33L115 34L114 33z"/>
<path style="fill:#5f5f5f; stroke:none;" d="M141 33L142 34L141 33z"/>
<path style="fill:#a1a1a1; stroke:none;" d="M18 34L19 35L18 34z"/>
<path style="fill:#5f5f5f; stroke:none;" d="M32 34L33 35L32 34z"/>
<path style="fill:#a1a1a1; stroke:none;" d="M56 34L57 35L56 34z"/>
<path style="fill:#5f5f5f; stroke:none;" d="M62 34L63 35L62 34M109 34L110 35L109 34z"/>
<path style="fill:#a1a1a1; stroke:none;" d="M115 34L116 35L115 34z"/>
<path style="fill:#5f5f5f; stroke:none;" d="M139 34L140 35L139 34z"/>
<path style="fill:#a1a1a1; stroke:none;" d="M153 34L154 35L153 34z"/>
<path style="fill:#303030; stroke:none;" d="M34 35L35 36L34 35z"/>
<path style="fill:#5f5f5f; stroke:none;" d="M56 35L57 36L56 35M115 35L116 36L115 35z"/>
<path style="fill:#303030; stroke:none;" d="M137 35L138 36L137 35z"/>
<path style="fill:#a1a1a1; stroke:none;" d="M19 36L20 37L19 36z"/>
<path style="fill:#303030; stroke:none;" d="M35 36L35 40L36 40L35 36z"/>
<path style="fill:#5f5f5f; stroke:none;" d="M61 36L62 37L61 36M110 36L111 37L110 36z"/>
<path style="fill:#303030; stroke:none;" d="M136 36L136 41L137 41L136 36z"/>
<path style="fill:#a1a1a1; stroke:none;" d="M152 36L153 37L152 36z"/>
<path style="fill:#303030; stroke:none;" d="M19 37L20 38L19 37z"/>
<path style="fill:#5f5f5f; stroke:none;" d="M55 37L56 38L55 37z"/>
<path style="fill:#a1a1a1; stroke:none;" d="M61 37L62 38L61 37M110 37L111 38L110 37z"/>
<path style="fill:#5f5f5f; stroke:none;" d="M116 37L117 38L116 37z"/>
<path style="fill:#303030; stroke:none;" d="M152 37L153 38L152 37z"/>
<path style="fill:#a1a1a1; stroke:none;" d="M20 38L21 39L20 38z"/>
<path style="fill:#303030; stroke:none;" d="M40 38L40 41L41 41L40 38M55 38L56 39L55 38M60 38L61 39L60 38M111 38L112 39L111 38M131 38L131 41L132 41L131 38z"/>
<path style="fill:#a1a1a1; stroke:none;" d="M151 38L152 39L151 38z"/>
<path style="fill:#5f5f5f; stroke:none;" d="M20 39L21 40L20 39z"/>
<path style="fill:#a1a1a1; stroke:none;" d="M54 39L55 40L54 39M60 39L61 40L60 39M111 39L112 40L111 39M117 39L118 40L117 39z"/>
<path style="fill:#5f5f5f; stroke:none;" d="M151 39L152 40L151 39z"/>
<path style="fill:#303030; stroke:none;" d="M54 40L55 41L54 40z"/>
<path style="fill:#5f5f5f; stroke:none;" d="M117 40L118 41L117 40z"/>
<path style="fill:#a1a1a1; stroke:none;" d="M21 41L22 42L21 41z"/>
<path style="fill:#5f5f5f; stroke:none;" d="M40.3333 41.6667L40.6667 42.3333L40.3333 41.6667M59 41L60 42L59 41M112 41L113 42L112 41M131.333 41.6667L131.667 42.3333L131.333 41.6667z"/>
<path style="fill:#a1a1a1; stroke:none;" d="M150 41L151 42L150 41z"/>
<path style="fill:#5f5f5f; stroke:none;" d="M21 42L22 43L21 42z"/>
<path style="fill:#a1a1a1; stroke:none;" d="M53 42L54 43L53 42M59 42L60 43L59 42M112 42L113 43L112 42M118 42L119 43L118 42z"/>
<path style="fill:#5f5f5f; stroke:none;" d="M150 42L151 43L150 42z"/>
<path style="fill:#a1a1a1; stroke:none;" d="M40.3333 43.6667L40.6667 44.3333L40.3333 43.6667z"/>
<path style="fill:#303030; stroke:none;" d="M53 43L54 44L53 43M118 43L119 44L118 43z"/>
<path style="fill:#a1a1a1; stroke:none;" d="M131.333 43.6667L131.667 44.3333L131.333 43.6667M0 44L2 46L0 44z"/>
<path style="fill:#fdfdfd; stroke:none;" d="M1 44C3.99663 50.4107 7.87752 56.1479 9.96065 63C13.6429 75.1122 12.3645 90.2969 27 95C22.4288 86.3104 20.0038 78.8953 20 69C19.9979 63.485 21.1648 52.0703 17.142 47.7276C13.8222 44.1439 5.53111 44.0935 1 44z"/>
<path style="fill:#a1a1a1; stroke:none;" d="M7 44L8 45L7 44z"/>
<path style="fill:#5f5f5f; stroke:none;" d="M8.66667 44.3333L9.33333 44.6667L8.66667 44.3333z"/>
<path style="fill:#303030; stroke:none;" d="M10 44L11 45L10 44z"/>
<path style="fill:#5f5f5f; stroke:none;" d="M58 44L59 45L58 44M113 44L114 45L113 44z"/>
<path style="fill:#a1a1a1; stroke:none;" d="M149.333 44.6667L149.667 45.3333L149.333 44.6667z"/>
<path style="fill:#303030; stroke:none;" d="M161 44L162 45L161 44z"/>
<path style="fill:#5f5f5f; stroke:none;" d="M162.667 44.3333L163.333 44.6667L162.667 44.3333z"/>
<path style="fill:#a1a1a1; stroke:none;" d="M164.667 44.3333L165.333 44.6667L164.667 44.3333z"/>
<path style="fill:#fdfdfd; stroke:none;" d="M154 47C151.88 63.7561 153.028 79.7393 145 95C159.641 90.0598 158.33 75.2018 162.039 63C164.122 56.1479 168.003 50.4107 171 44L154 47z"/>
<path style="fill:#a1a1a1; stroke:none;" d="M171 44L172 45L171 44z"/>
<path style="fill:#303030; stroke:none;" d="M0 45L1 46L0 45z"/>
<path style="fill:#a1a1a1; stroke:none;" d="M12 45L13 46L12 45z"/>
<path style="fill:#5f5f5f; stroke:none;" d="M13 45L14 46L13 45z"/>
<path style="fill:#303030; stroke:none;" d="M14 45L15 46L14 45z"/>
<path style="fill:#a1a1a1; stroke:none;" d="M22 45L23 46L22 45M34 45L34 49L35 49L34 45M52 45L53 46L52 45M113 45L114 46L113 45M119 45L120 46L119 45M137 45L137 49L138 49L137 45z"/>
<path style="fill:#303030; stroke:none;" d="M157 45L158 46L157 45z"/>
<path style="fill:#5f5f5f; stroke:none;" d="M158 45L159 46L158 45z"/>
<path style="fill:#a1a1a1; stroke:none;" d="M159 45L160 46L159 45M170 45L171 46L170 45z"/>
<path style="fill:#303030; stroke:none;" d="M1 46L2 47L1 46z"/>
<path style="fill:#a1a1a1; stroke:none;" d="M16 46L17 47L16 46z"/>
<path style="fill:#303030; stroke:none;" d="M17 46L18 47L17 46M22.3333 46.6667L22.6667 47.3333L22.3333 46.6667M52.3333 46.6667L52.6667 47.3333L52.3333 46.6667M57 46L58 47L57 46z"/>
<path style="fill:#5f5f5f; stroke:none;" d="M119 46L120 47L119 46M149 46L150 47L149 46z"/>
<path style="fill:#303030; stroke:none;" d="M154 46L155 47L154 46z"/>
<path style="fill:#5f5f5f; stroke:none;" d="M155 46L156 47L155 46z"/>
<path style="fill:#a1a1a1; stroke:none;" d="M156 46L157 47L156 46z"/>
<path style="fill:#303030; stroke:none;" d="M170 46L171 47L170 46z"/>
<path style="fill:#5f5f5f; stroke:none;" d="M2 47L3 48L2 47z"/>
<path style="fill:#303030; stroke:none;" d="M18 47L19 48L18 47M39.3333 47.6667L39.6667 48.3333L39.3333 47.6667z"/>
<path style="fill:#5f5f5f; stroke:none;" d="M57 47L58 48L57 47M114 47L115 48L114 47z"/>
<path style="fill:#303030; stroke:none;" d="M119 47L120 48L119 47M132.333 47.6667L132.667 48.3333L132.333 47.6667M149 47L150 48L149 47M153 47L154 48L153 47z"/>
<path style="fill:#5f5f5f; stroke:none;" d="M169 47L170 48L169 47z"/>
<path style="fill:#a1a1a1; stroke:none;" d="M3 48L4 49L3 48z"/>
<path style="fill:#5f5f5f; stroke:none;" d="M18 48L19 49L18 48z"/>
<path style="fill:#a1a1a1; stroke:none;" d="M51.3333 48.6667L51.6667 49.3333L51.3333 48.6667M57.3333 48.6667L57.6667 49.3333L57.3333 48.6667M114 48L115 49L114 48M120.333 48.6667L120.667 49.3333L120.333 48.6667z"/>
<path style="fill:#5f5f5f; stroke:none;" d="M153 48L154 49L153 48z"/>
<path style="fill:#a1a1a1; stroke:none;" d="M168 48L169 49L168 48z"/>
<path style="fill:#303030; stroke:none;" d="M3 49L4 50L3 49z"/>
<path style="fill:#a1a1a1; stroke:none;" d="M18 49L19 50L18 49z"/>
<path style="fill:#5f5f5f; stroke:none;" d="M34.3333 49.6667L34.6667 50.3333L34.3333 49.6667M39 49L40 50L39 49M132 49L133 50L132 49M137 49L138 50L137 49z"/>
<path style="fill:#a1a1a1; stroke:none;" d="M153.333 49.6667L153.667 50.3333L153.333 49.6667z"/>
<path style="fill:#303030; stroke:none;" d="M168 49L169 50L168 49z"/>
<path style="fill:#a1a1a1; stroke:none;" d="M4 50L5 51L4 50M23.3333 50.6667L23.6667 51.3333L23.3333 50.6667M39 50L40 51L39 50z"/>
<path style="fill:#303030; stroke:none;" d="M51 50L52 51L51 50M56 50L57 51L56 50M115 50L116 51L115 50z"/>
<path style="fill:#5f5f5f; stroke:none;" d="M120 50L121 51L120 50z"/>
<path style="fill:#a1a1a1; stroke:none;" d="M132 50L133 51L132 50z"/>
<path style="fill:#303030; stroke:none;" d="M137.333 50.6667L137.667 51.3333L137.333 50.6667z"/>
<path style="fill:#a1a1a1; stroke:none;" d="M148 50L148 53L149 53L148 50z"/>
<path style="fill:#5f5f5f; stroke:none;" d="M167 50L168 51L167 50z"/>
<path style="fill:#303030; stroke:none;" d="M34 51L35 52L34 51z"/>
<path style="fill:#5f5f5f; stroke:none;" d="M56 51L57 52L56 51M115 51L116 52L115 51M5 52L6 53L5 52z"/>
<path style="fill:#303030; stroke:none;" d="M19 52L20 53L19 52z"/>
<path style="fill:#5f5f5f; stroke:none;" d="M23.3333 52.6667L23.6667 53.3333L23.3333 52.6667z"/>
<path style="fill:#a1a1a1; stroke:none;" d="M56 52L57 53L56 52M115.333 52.6667L115.667 53.3333L115.333 52.6667z"/>
<path style="fill:#303030; stroke:none;" d="M152 52L153 53L152 52z"/>
<path style="fill:#5f5f5f; stroke:none;" d="M166 52L167 53L166 52z"/>
<path style="fill:#a1a1a1; stroke:none;" d="M6 53L7 54L6 53z"/>
<path style="fill:#5f5f5f; stroke:none;" d="M19 53L19 56L20 56L19 53z"/>
<path style="fill:#303030; stroke:none;" d="M38 53L39 54L38 53z"/>
<path style="fill:#a1a1a1; stroke:none;" d="M50.3333 53.6667L50.6667 54.3333L50.3333 53.6667M121.333 53.6667L121.667 54.3333L121.333 53.6667z"/>
<path style="fill:#303030; stroke:none;" d="M133 53L134 54L133 53z"/>
<path style="fill:#5f5f5f; stroke:none;" d="M148.333 53.6667L148.667 54.3333L148.333 53.6667M152.333 53.6667L152.667 54.3333L152.333 53.6667z"/>
<path style="fill:#a1a1a1; stroke:none;" d="M165 53L166 54L165 53z"/>
<path style="fill:#5f5f5f; stroke:none;" d="M6 54L7 55L6 54z"/>
<path style="fill:#303030; stroke:none;" d="M23 54L23 59L24 59L23 54z"/>
<path style="fill:#a1a1a1; stroke:none;" d="M33 54L33 57L34 57L33 54z"/>
<path style="fill:#5f5f5f; stroke:none;" d="M38 54L39 55L38 54M133 54L134 55L133 54z"/>
<path style="fill:#a1a1a1; stroke:none;" d="M138 54L138 57L139 57L138 54z"/>
<path style="fill:#5f5f5f; stroke:none;" d="M165 54L166 55L165 54z"/>
<path style="fill:#a1a1a1; stroke:none;" d="M38 55L38 58L39 58L38 55z"/>
<path style="fill:#5f5f5f; stroke:none;" d="M50 55L51 56L50 55z"/>
<path style="fill:#303030; stroke:none;" d="M55 55L56 56L55 55z"/>
<path style="fill:#5f5f5f; stroke:none;" d="M121 55L122 56L121 55z"/>
<path style="fill:#a1a1a1; stroke:none;" d="M133 55L133 58L134 58L133 55z"/>
<path style="fill:#303030; stroke:none;" d="M148 55L148 59L149 59L148 55z"/>
<path style="fill:#a1a1a1; stroke:none;" d="M152 55L152 58L153 58L152 55z"/>
<path style="fill:#5f5f5f; stroke:none;" d="M7 56L8 57L7 56z"/>
<path style="fill:#a1a1a1; stroke:none;" d="M19.3333 56.6667L19.6667 57.3333L19.3333 56.6667z"/>
<path style="fill:#303030; stroke:none;" d="M50 56L51 57L50 56z"/>
<path style="fill:#5f5f5f; stroke:none;" d="M55.3333 56.6667L55.6667 57.3333L55.3333 56.6667M116.333 56.6667L116.667 57.3333L116.333 56.6667z"/>
<path style="fill:#303030; stroke:none;" d="M121 56L122 57L121 56z"/>
<path style="fill:#5f5f5f; stroke:none;" d="M164 56L165 57L164 56z"/>
<path style="fill:#303030; stroke:none;" d="M7 57L8 58L7 57z"/>
<path style="fill:#5f5f5f; stroke:none;" d="M33 57L34 58L33 57M138 57L139 58L138 57z"/>
<path style="fill:#303030; stroke:none;" d="M164 57L165 58L164 57z"/>
<path style="fill:#a1a1a1; stroke:none;" d="M8 58L9 59L8 58z"/>
<path style="fill:#303030; stroke:none;" d="M33 58L34 59L33 58z"/>
<path style="fill:#a1a1a1; stroke:none;" d="M55 58L55 63L56 63L55 58M116 58L116 63L117 63L116 58z"/>
<path style="fill:#303030; stroke:none;" d="M138 58L139 59L138 58z"/>
<path style="fill:#a1a1a1; stroke:none;" d="M163 58L164 59L163 58z"/>
<path style="fill:#303030; stroke:none;" d="M8 59L9 60L8 59M134.333 59.6667L134.667 60.3333L134.333 59.6667M163 59L164 60L163 59M37 60L38 61L37 60z"/>
<path style="fill:#a1a1a1; stroke:none;" d="M9 61L10 62L9 61M32 61L33 62L32 61z"/>
<path style="fill:#5f5f5f; stroke:none;" d="M37 61L38 62L37 61z"/>
<path style="fill:#a1a1a1; stroke:none;" d="M49 61L49 66L50 66L49 61M122 61L122 68L123 68L122 61z"/>
<path style="fill:#5f5f5f; stroke:none;" d="M134 61L135 62L134 61z"/>
<path style="fill:#a1a1a1; stroke:none;" d="M139 61L140 62L139 61M162 61L163 62L162 61z"/>
<path style="fill:#303030; stroke:none;" d="M9 62L10 63L9 62M20 62L20 72L21 72L20 62z"/>
<path style="fill:#5f5f5f; stroke:none;" d="M32.3333 62.6667L32.6667 63.3333L32.3333 62.6667z"/>
<path style="fill:#a1a1a1; stroke:none;" d="M37 62L37 65L38 65L37 62M134 62L134 65L135 65L134 62z"/>
<path style="fill:#5f5f5f; stroke:none;" d="M139 62L140 63L139 62z"/>
<path style="fill:#303030; stroke:none;" d="M162 62L163 63L162 62M139.333 63.6667L139.667 64.3333L139.333 63.6667M151 63L151 72L152 72L151 63z"/>
<path style="fill:#a1a1a1; stroke:none;" d="M10 64L11 65L10 64z"/>
<path style="fill:#303030; stroke:none;" d="M32 64L33 65L32 64z"/>
<path style="fill:#a1a1a1; stroke:none;" d="M116 64L116 71L117 71L116 64M161 64L162 65L161 64z"/>
<path style="fill:#5f5f5f; stroke:none;" d="M10 65L11 66L10 65z"/>
<path style="fill:#a1a1a1; stroke:none;" d="M55 65L55 71L56 71L55 65z"/>
<path style="fill:#5f5f5f; stroke:none;" d="M161 65L162 66L161 65z"/>
<path style="fill:#303030; stroke:none;" d="M10 66L11 67L10 66z"/>
<path style="fill:#a1a1a1; stroke:none;" d="M31 66L31 69L32 69L31 66z"/>
<path style="fill:#303030; stroke:none;" d="M161 66L162 67L161 66M36 67L36 70L37 70L36 67M135 67L135 70L136 70L135 67z"/>
<path style="fill:#a1a1a1; stroke:none;" d="M140 67L140 70L141 70L140 67M24 68L24 76L25 76L24 68M147 68L147 76L148 76L147 68M11.3333 69.6667L11.6667 70.3333L11.3333 69.6667z"/>
<path style="fill:#5f5f5f; stroke:none;" d="M31.3333 69.6667L31.6667 70.3333L31.3333 69.6667z"/>
<path style="fill:#a1a1a1; stroke:none;" d="M160.333 69.6667L160.667 70.3333L160.333 69.6667z"/>
<path style="fill:#5f5f5f; stroke:none;" d="M36 70L37 71L36 70z"/>
<path style="fill:#303030; stroke:none;" d="M50.3333 70.6667L50.6667 71.3333L50.3333 70.6667z"/>
<path style="fill:#5f5f5f; stroke:none;" d="M135 70L136 71L135 70M140.333 70.6667L140.667 71.3333L140.333 70.6667M11.3333 71.6667L11.6667 72.3333L11.3333 71.6667z"/>
<path style="fill:#303030; stroke:none;" d="M31 71L31 76L32 76L31 71z"/>
<path style="fill:#a1a1a1; stroke:none;" d="M36 71L37 72L36 71z"/>
<path style="fill:#5f5f5f; stroke:none;" d="M55 71L56 72L55 71M116 71L117 72L116 71z"/>
<path style="fill:#a1a1a1; stroke:none;" d="M135 71L136 72L135 71z"/>
<path style="fill:#5f5f5f; stroke:none;" d="M160 71L161 72L160 71z"/>
<path style="fill:#a1a1a1; stroke:none;" d="M20 72L21 73L20 72z"/>
<path style="fill:#5f5f5f; stroke:none;" d="M36.3333 72.6667L36.6667 73.3333L36.3333 72.6667M50 72L50 75L51 75L50 72z"/>
<path style="fill:#303030; stroke:none;" d="M55.3333 72.6667L55.6667 73.3333L55.3333 72.6667M116 72L116 75L117 75L116 72z"/>
<path style="fill:#5f5f5f; stroke:none;" d="M121 72L121 75L122 75L121 72M135 72L135 80L136 80L135 72z"/>
<path style="fill:#303030; stroke:none;" d="M140 72L140 75L141 75L140 72z"/>
<path style="fill:#5f5f5f; stroke:none;" d="M151.333 72.6667L151.667 73.3333L151.333 72.6667z"/>
<path style="fill:#303030; stroke:none;" d="M160.333 72.6667L160.667 73.3333L160.333 72.6667M11 73L12 74L11 73z"/>
<path style="fill:#5f5f5f; stroke:none;" d="M20 73L20 76L21 76L20 73z"/>
<path style="fill:#a1a1a1; stroke:none;" d="M36 74L36 77L37 77L36 74M151 74L151 78L152 78L151 74M50 75L51 76L50 75M121 75L122 76L121 75z"/>
<path style="fill:#5f5f5f; stroke:none;" d="M140 75L140 78L141 78L140 75z"/>
<path style="fill:#a1a1a1; stroke:none;" d="M12.3333 76.6667L12.6667 77.3333L12.3333 76.6667M20 76L20 79L21 79L20 76z"/>
<path style="fill:#5f5f5f; stroke:none;" d="M24.3333 76.6667L24.6667 77.3333L24.3333 76.6667M31 76L32 77L31 76z"/>
<path style="fill:#a1a1a1; stroke:none;" d="M56 76L57 77L56 76M115 76L116 77L115 76z"/>
<path style="fill:#5f5f5f; stroke:none;" d="M147.333 76.6667L147.667 77.3333L147.333 76.6667z"/>
<path style="fill:#a1a1a1; stroke:none;" d="M159.333 76.6667L159.667 77.3333L159.333 76.6667M31 77L31 81L32 81L31 77z"/>
<path style="fill:#5f5f5f; stroke:none;" d="M36.3333 77.6667L36.6667 78.3333L36.3333 77.6667z"/>
<path style="fill:#303030; stroke:none;" d="M51 77L52 78L51 77z"/>
<path style="fill:#5f5f5f; stroke:none;" d="M56 77L57 78L56 77M115 77L116 78L115 77z"/>
<path style="fill:#303030; stroke:none;" d="M12 78L13 79L12 78M24 78L25 79L24 78z"/>
<path style="fill:#5f5f5f; stroke:none;" d="M51 78L52 79L51 78z"/>
<path style="fill:#303030; stroke:none;" d="M56 78L57 79L56 78M115 78L116 79L115 78M120 78L121 79L120 78z"/>
<path style="fill:#a1a1a1; stroke:none;" d="M140 78L140 81L141 81L140 78z"/>
<path style="fill:#303030; stroke:none;" d="M147 78L148 79L147 78M159 78L160 79L159 78M36.3333 79.6667L36.6667 80.3333L36.3333 79.6667z"/>
<path style="fill:#a1a1a1; stroke:none;" d="M51 79L52 80L51 79z"/>
<path style="fill:#5f5f5f; stroke:none;" d="M120 79L121 80L120 79z"/>
<path style="fill:#a1a1a1; stroke:none;" d="M13 80L14 81L13 80M57 80L58 81L57 80M114 80L115 81L114 80M120 80L121 81L120 80z"/>
<path style="fill:#303030; stroke:none;" d="M135 80L136 81L135 80z"/>
<path style="fill:#a1a1a1; stroke:none;" d="M158 80L159 81L158 80z"/>
<path style="fill:#5f5f5f; stroke:none;" d="M13 81L14 82L13 81z"/>
<path style="fill:#303030; stroke:none;" d="M21 81L22 82L21 81z"/>
<path style="fill:#a1a1a1; stroke:none;" d="M25 81L26 82L25 81z"/>
<path style="fill:#303030; stroke:none;" d="M52 81L53 82L52 81z"/>
<path style="fill:#5f5f5f; stroke:none;" d="M57 81L58 82L57 81M114 81L115 82L114 81z"/>
<path style="fill:#a1a1a1; stroke:none;" d="M146 81L147 82L146 81z"/>
<path style="fill:#303030; stroke:none;" d="M150 81L151 82L150 81z"/>
<path style="fill:#5f5f5f; stroke:none;" d="M158 81L159 82L158 81M21 82L22 83L21 82M25 82L26 83L25 82M52 82L53 83L52 82z"/>
<path style="fill:#303030; stroke:none;" d="M57 82L58 83L57 82M114 82L115 83L114 82M119 82L120 83L119 82z"/>
<path style="fill:#5f5f5f; stroke:none;" d="M146 82L147 83L146 82M150 82L151 83L150 82z"/>
<path style="fill:#303030; stroke:none;" d="M158 82L159 83L158 82z"/>
<path style="fill:#a1a1a1; stroke:none;" d="M14 83L15 84L14 83M21 83L22 84L21 83z"/>
<path style="fill:#303030; stroke:none;" d="M25 83L26 84L25 83M32 83L33 84L32 83z"/>
<path style="fill:#a1a1a1; stroke:none;" d="M37 83L38 84L37 83M52 83L53 84L52 83M58 83L59 84L58 83M113 83L114 84L113 83M119 83L120 84L119 83M134 83L135 84L134 83z"/>
<path style="fill:#303030; stroke:none;" d="M139 83L140 84L139 83M146 83L147 84L146 83z"/>
<path style="fill:#a1a1a1; stroke:none;" d="M150 83L151 84L150 83M157 83L158 84L157 83z"/>
<path style="fill:#303030; stroke:none;" d="M14 84L15 85L14 84z"/>
<path style="fill:#a1a1a1; stroke:none;" d="M26 84L27 85L26 84M32 84L33 85L32 84z"/>
<path style="fill:#5f5f5f; stroke:none;" d="M37 84L38 85L37 84M58 84L59 85L58 84M113 84L114 85L113 84M134 84L135 85L134 84z"/>
<path style="fill:#a1a1a1; stroke:none;" d="M139 84L140 85L139 84z"/>
<path style="fill:#303030; stroke:none;" d="M157 84L158 85L157 84z"/>
<path style="fill:#a1a1a1; stroke:none;" d="M15 85L16 86L15 85z"/>
<path style="fill:#303030; stroke:none;" d="M22 85L23 86L22 85z"/>
<path style="fill:#5f5f5f; stroke:none;" d="M26 85L27 86L26 85z"/>
<path style="fill:#303030; stroke:none;" d="M53 85L54 86L53 85M118 85L119 86L118 85M134 85L135 86L134 85z"/>
<path style="fill:#5f5f5f; stroke:none;" d="M145 85L146 86L145 85z"/>
<path style="fill:#303030; stroke:none;" d="M149 85L150 86L149 85z"/>
<path style="fill:#a1a1a1; stroke:none;" d="M156 85L157 86L156 85M22 86L23 87L22 86z"/>
<path style="fill:#303030; stroke:none;" d="M26 86L27 87L26 86M33 86L34 87L33 86z"/>
<path style="fill:#a1a1a1; stroke:none;" d="M38 86L39 87L38 86M53 86L54 87L53 86M59 86L60 87L59 86M112 86L113 87L112 86M118 86L119 87L118 86M133 86L134 87L133 86z"/>
<path style="fill:#303030; stroke:none;" d="M138 86L139 87L138 86M145 86L146 87L145 86z"/>
<path style="fill:#a1a1a1; stroke:none;" d="M149 86L150 87L149 86z"/>
<path style="fill:#5f5f5f; stroke:none;" d="M16 87L17 88L16 87z"/>
<path style="fill:#a1a1a1; stroke:none;" d="M27 87L28 88L27 87z"/>
<path style="fill:#5f5f5f; stroke:none;" d="M33 87L34 88L33 87M38 87L39 88L38 87z"/>
<path style="fill:#303030; stroke:none;" d="M59 87L60 88L59 87M112 87L113 88L112 87z"/>
<path style="fill:#5f5f5f; stroke:none;" d="M133 87L134 88L133 87M138 87L139 88L138 87z"/>
<path style="fill:#a1a1a1; stroke:none;" d="M144 87L145 88L144 87z"/>
<path style="fill:#5f5f5f; stroke:none;" d="M155 87L156 88L155 87z"/>
<path style="fill:#a1a1a1; stroke:none;" d="M17 88L18 89L17 88z"/>
<path style="fill:#5f5f5f; stroke:none;" d="M23 88L24 89L23 88z"/>
<path style="fill:#303030; stroke:none;" d="M27 88L28 89L27 88z"/>
<path style="fill:#a1a1a1; stroke:none;" d="M33 88L34 89L33 88z"/>
<path style="fill:#5f5f5f; stroke:none;" d="M54 88L55 89L54 88z"/>
<path style="fill:#a1a1a1; stroke:none;" d="M60 88L61 89L60 88M111 88L112 89L111 88z"/>
<path style="fill:#5f5f5f; stroke:none;" d="M117 88L118 89L117 88z"/>
<path style="fill:#a1a1a1; stroke:none;" d="M138 88L139 89L138 88z"/>
<path style="fill:#303030; stroke:none;" d="M144 88L145 89L144 88z"/>
<path style="fill:#5f5f5f; stroke:none;" d="M148 88L149 89L148 88z"/>
<path style="fill:#a1a1a1; stroke:none;" d="M154 88L155 89L154 88M28 89L29 90L28 89z"/>
<path style="fill:#303030; stroke:none;" d="M34 89L35 90L34 89z"/>
<path style="fill:#5f5f5f; stroke:none;" d="M39 89L40 90L39 89z"/>
<path style="fill:#a1a1a1; stroke:none;" d="M54 89L55 90L54 89z"/>
<path style="fill:#5f5f5f; stroke:none;" d="M132 89L133 90L132 89z"/>
<path style="fill:#303030; stroke:none;" d="M137 89L138 90L137 89z"/>
<path style="fill:#a1a1a1; stroke:none;" d="M143 89L144 90L143 89M19 90L20 91L19 90z"/>
<path style="fill:#5f5f5f; stroke:none;" d="M24 90L25 91L24 90z"/>
<path style="fill:#303030; stroke:none;" d="M28 90L29 91L28 90z"/>
<path style="fill:#5f5f5f; stroke:none;" d="M34 90L35 91L34 90M55 90L56 91L55 90M61 90L62 91L61 90z"/>
<path style="fill:#a1a1a1; stroke:none;" d="M110 90L111 91L110 90z"/>
<path style="fill:#5f5f5f; stroke:none;" d="M116 90L117 91L116 90z"/>
<path style="fill:#a1a1a1; stroke:none;" d="M137 90L138 91L137 90z"/>
<path style="fill:#303030; stroke:none;" d="M143 90L144 91L143 90z"/>
<path style="fill:#5f5f5f; stroke:none;" d="M147 90L148 91L147 90z"/>
<path style="fill:#a1a1a1; stroke:none;" d="M152 90L153 91L152 90z"/>
<path style="fill:#303030; stroke:none;" d="M25 91L26 92L25 91z"/>
<path style="fill:#5f5f5f; stroke:none;" d="M29 91L30 92L29 91M40 91L41 92L40 91z"/>
<path style="fill:#a1a1a1; stroke:none;" d="M62 91L63 92L62 91M109 91L110 92L109 91z"/>
<path style="fill:#5f5f5f; stroke:none;" d="M131 91L132 92L131 91M142 91L143 92L142 91z"/>
<path style="fill:#a1a1a1; stroke:none;" d="M151 91L152 92L151 91M21 92L22 93L21 92M25 92L26 93L25 92M30 92L31 93L30 92M35 92L36 93L35 92z"/>
<path style="fill:#5f5f5f; stroke:none;" d="M56 92L57 93L56 92z"/>
<path style="fill:#303030; stroke:none;" d="M62 92L63 93L62 92M109 92L110 93L109 92z"/>
<path style="fill:#5f5f5f; stroke:none;" d="M115 92L116 93L115 92z"/>
<path style="fill:#a1a1a1; stroke:none;" d="M136 92L137 93L136 92M141 92L142 93L141 92M146 92L147 93L146 92M150 92L151 93L150 92z"/>
<path style="fill:#303030; stroke:none;" d="M22 93L23 94L22 93z"/>
<path style="fill:#5f5f5f; stroke:none;" d="M26 93L27 94L26 93z"/>
<path style="fill:#a1a1a1; stroke:none;" d="M31 93L32 94L31 93z"/>
<path style="fill:#303030; stroke:none;" d="M36 93L37 94L36 93z"/>
<path style="fill:#5f5f5f; stroke:none;" d="M41 93L42 94L41 93z"/>
<path style="fill:#303030; stroke:none;" d="M57 93L58 94L57 93z"/>
<path style="fill:#5f5f5f; stroke:none;" d="M63 93L64 94L63 93M108 93L109 94L108 93z"/>
<path style="fill:#303030; stroke:none;" d="M114 93L115 94L114 93z"/>
<path style="fill:#5f5f5f; stroke:none;" d="M130 93L131 94L130 93z"/>
<path style="fill:#a1a1a1; stroke:none;" d="M140 93L141 94L140 93z"/>
<path style="fill:#5f5f5f; stroke:none;" d="M145 93L146 94L145 93z"/>
<path style="fill:#303030; stroke:none;" d="M149 93L150 94L149 93z"/>
<path style="fill:#5f5f5f; stroke:none;" d="M24 94L25 95L24 94z"/>
<path style="fill:#303030; stroke:none;" d="M27 94L28 95L27 94z"/>
<path style="fill:#a1a1a1; stroke:none;" d="M36 94L37 95L36 94M42 94L43 95L42 94M57 94L58 95L57 94M64 94L65 95L64 94M107 94L108 95L107 94M114 94L115 95L114 94M129 94L130 95L129 94M135 94L136 95L135 94M139 94L140 95L139 94z"/>
<path style="fill:#303030; stroke:none;" d="M144 94L145 95L144 94z"/>
<path style="fill:#5f5f5f; stroke:none;" d="M147 94L148 95L147 94M26.6667 95.3333L27.3333 95.6667L26.6667 95.3333z"/>
<path style="fill:#a1a1a1; stroke:none;" d="M33 95L34 96L33 95z"/>
<path style="fill:#303030; stroke:none;" d="M37 95L38 96L37 95z"/>
<path style="fill:#5f5f5f; stroke:none;" d="M58 95L59 96L58 95z"/>
<path style="fill:#a1a1a1; stroke:none;" d="M65 95L66 96L65 95M106 95L107 96L106 95z"/>
<path style="fill:#5f5f5f; stroke:none;" d="M113 95L114 96L113 95z"/>
<path style="fill:#303030; stroke:none;" d="M129 95L130 96L129 95z"/>
<path style="fill:#5f5f5f; stroke:none;" d="M134 95L135 96L134 95z"/>
<path style="fill:#a1a1a1; stroke:none;" d="M138 95L137 97L138 95M144 95L145 96L144 95z"/>
<path style="fill:#5f5f5f; stroke:none;" d="M145 95L146 96L145 95z"/>
<path style="fill:#a1a1a1; stroke:none;" d="M34 96L35 97L34 96z"/>
<path style="fill:#303030; stroke:none;" d="M38 96L39 97L38 96z"/>
<path style="fill:#5f5f5f; stroke:none;" d="M43 96L44 97L43 96z"/>
<path style="fill:#303030; stroke:none;" d="M59 96L60 97L59 96z"/>
<path style="fill:#a1a1a1; stroke:none;" d="M66 96L67 97L66 96M105 96L106 97L105 96z"/>
<path style="fill:#303030; stroke:none;" d="M112 96L113 97L112 96z"/>
<path style="fill:#5f5f5f; stroke:none;" d="M128 96L129 97L128 96z"/>
<path style="fill:#303030; stroke:none;" d="M138 96L139 97L138 96z"/>
<path style="fill:#5f5f5f; stroke:none;" d="M35 97L36 98L35 97z"/>
<path style="fill:#a1a1a1; stroke:none;" d="M38 97L39 98L38 97z"/>
<path style="fill:#5f5f5f; stroke:none;" d="M44 97L45 98L44 97z"/>
<path style="fill:#a1a1a1; stroke:none;" d="M67 97L68 98L67 97M104 97L105 98L104 97M127 97L128 98L127 97M133 97L134 98L133 97z"/>
<path style="fill:#5f5f5f; stroke:none;" d="M136 97L137 98L136 97z"/>
<path style="fill:#303030; stroke:none;" d="M137 97L138 98L137 97z"/>
<path style="fill:#a1a1a1; stroke:none;" d="M37 98L38 99L37 98M39.3333 98.6667L39.6667 99.3333L39.3333 98.6667M45 98L46 99L45 98z"/>
<path style="fill:#5f5f5f; stroke:none;" d="M68 98L69 99L68 98M103 98L104 99L103 98z"/>
<path style="fill:#a1a1a1; stroke:none;" d="M111 98L112 99L111 98M126 98L127 99L126 98M132.333 98.6667L132.667 99.3333L132.333 98.6667M134 98L135 99L134 98z"/>
<path style="fill:#303030; stroke:none;" d="M38 99L39 100L38 99z"/>
<path style="fill:#5f5f5f; stroke:none;" d="M40 99L41 100L40 99z"/>
<path style="fill:#303030; stroke:none;" d="M69 99L70 100L69 99M102 99L103 100L102 99M109 99L108 101L109 99z"/>
<path style="fill:#a1a1a1; stroke:none;" d="M110 99L111 100L110 99M125 99L124 101L125 99z"/>
<path style="fill:#5f5f5f; stroke:none;" d="M131 99L132 100L131 99z"/>
<path style="fill:#a1a1a1; stroke:none;" d="M47 100L48 101L47 100z"/>
<path style="fill:#5f5f5f; stroke:none;" d="M71 100L72 101L71 100M100 100L101 101L100 100z"/>
<path style="fill:#a1a1a1; stroke:none;" d="M109 100L110 101L109 100z"/>
<path style="fill:#303030; stroke:none;" d="M125 100L126 101L125 100z"/>
<path style="fill:#a1a1a1; stroke:none;" d="M48 101L49 102L48 101z"/>
<path style="fill:#303030; stroke:none;" d="M64 101L65 102L64 101z"/>
<path style="fill:#a1a1a1; stroke:none;" d="M73 101L74 102L73 101M98 101L99 102L98 101z"/>
<path style="fill:#303030; stroke:none;" d="M107 101L108 102L107 101z"/>
<path style="fill:#a1a1a1; stroke:none;" d="M123 101L124 102L123 101z"/>
<path style="fill:#5f5f5f; stroke:none;" d="M49 102L50 103L49 102M65 102L66 103L65 102M75 102L76 103L75 102z"/>
<path style="fill:#a1a1a1; stroke:none;" d="M76 102L77 103L76 102z"/>
<path style="fill:#5f5f5f; stroke:none;" d="M96 102L97 103L96 102z"/>
<path style="fill:#303030; stroke:none;" d="M106 102L107 103L106 102M122 102L123 103L122 102z"/>
<path style="fill:#5f5f5f; stroke:none;" d="M51 103L52 104L51 103M66 103L67 104L66 103z"/>
<path style="fill:#303030; stroke:none;" d="M77 103L78 104L77 103z"/>
<path style="fill:#5f5f5f; stroke:none;" d="M78 103L79 104L78 103z"/>
<path style="fill:#a1a1a1; stroke:none;" d="M79 103L80 104L79 103M92 103L93 104L92 103z"/>
<path style="fill:#5f5f5f; stroke:none;" d="M93 103L94 104L93 103z"/>
<path style="fill:#303030; stroke:none;" d="M94 103L95 104L94 103z"/>
<path style="fill:#5f5f5f; stroke:none;" d="M105 103L106 104L105 103z"/>
<path style="fill:#a1a1a1; stroke:none;" d="M120 103L121 104L120 103z"/>
<path style="fill:#303030; stroke:none;" d="M52 104L53 105L52 104z"/>
<path style="fill:#a1a1a1; stroke:none;" d="M53 104L54 105L53 104M67 104L68 105L67 104z"/>
<path style="fill:#303030; stroke:none;" d="M68 104L69 105L68 104M81.6667 104.333L82.3333 104.667L81.6667 104.333z"/>
<path style="fill:#5f5f5f; stroke:none;" d="M83.6667 104.333L84.3333 104.667L83.6667 104.333z"/>
<path style="fill:#a1a1a1; stroke:none;" d="M85.6667 104.333L86.3333 104.667L85.6667 104.333z"/>
<path style="fill:#5f5f5f; stroke:none;" d="M87.6667 104.333L88.3333 104.667L87.6667 104.333z"/>
<path style="fill:#303030; stroke:none;" d="M89 104L90 105L89 104M103 104L104 105L103 104z"/>
<path style="fill:#a1a1a1; stroke:none;" d="M104 104L105 105L104 104z"/>
<path style="fill:#5f5f5f; stroke:none;" d="M118 104L119 105L118 104z"/>
<path style="fill:#303030; stroke:none;" d="M54 105L55 106L54 105z"/>
<path style="fill:#5f5f5f; stroke:none;" d="M55 105L56 106L55 105z"/>
<path style="fill:#a1a1a1; stroke:none;" d="M56 105L57 106L56 105M69 105L70 106L69 105z"/>
<path style="fill:#303030; stroke:none;" d="M70 105L71 106L70 105z"/>
<path style="fill:#a1a1a1; stroke:none;" d="M102 105L103 106L102 105M115 105L116 106L115 105z"/>
<path style="fill:#5f5f5f; stroke:none;" d="M116 105L117 106L116 105z"/>
<path style="fill:#303030; stroke:none;" d="M58 106L59 107L58 106z"/>
<path style="fill:#a1a1a1; stroke:none;" d="M59.6667 106.333L60.3333 106.667L59.6667 106.333M71 106L72 107L71 106z"/>
<path style="fill:#303030; stroke:none;" d="M99 106L100 107L99 106z"/>
<path style="fill:#5f5f5f; stroke:none;" d="M100 106L101 107L100 106z"/>
<path style="fill:#a1a1a1; stroke:none;" d="M111.667 106.333L112.333 106.667L111.667 106.333z"/>
<path style="fill:#303030; stroke:none;" d="M113 106L114 107L113 106M64 107L64 108L68 108L64 107z"/>
<path style="fill:#5f5f5f; stroke:none;" d="M68.6667 107.333L69.3333 107.667L68.6667 107.333z"/>
<path style="fill:#303030; stroke:none;" d="M70 107L71 108L70 107M101 107L101 108L108 108L101 107M54 110L55 111L54 110z"/>
<path style="fill:#5f5f5f; stroke:none;" d="M55 110L56 111L55 110z"/>
<path style="fill:#a1a1a1; stroke:none;" d="M56 110L56 111L59 111L56 110z"/>
<path style="fill:#303030; stroke:none;" d="M59 110L60 111L59 110z"/>
<path style="fill:#5f5f5f; stroke:none;" d="M69 110L70 111L69 110z"/>
<path style="fill:#a1a1a1; stroke:none;" d="M70 110L70 111L74 111L70 110z"/>
<path style="fill:#5f5f5f; stroke:none;" d="M74.3333 110.667L74.6667 111.333L74.3333 110.667M97.3333 110.667L97.6667 111.333L97.3333 110.667z"/>
<path style="fill:#a1a1a1; stroke:none;" d="M98 110L98 111L101 111L98 110z"/>
<path style="fill:#5f5f5f; stroke:none;" d="M101.667 110.333L102.333 110.667L101.667 110.333z"/>
<path style="fill:#303030; stroke:none;" d="M112 110L113 111L112 110z"/>
<path style="fill:#a1a1a1; stroke:none;" d="M113 110L113 111L116 111L113 110z"/>
<path style="fill:#5f5f5f; stroke:none;" d="M116 110L117 111L116 110z"/>
<path style="fill:#303030; stroke:none;" d="M117 110L118 111L117 110z"/>
<path style="fill:#5f5f5f; stroke:none;" d="M35 111L36 112L35 111z"/>
<path style="fill:#a1a1a1; stroke:none;" d="M36 111L37 112L36 111z"/>
<path style="fill:#fdfdfd; stroke:none;" d="M31 115C36.0017 117.093 39.213 116.964 42 112C37.5312 111.143 34.4074 111.962 31 115z"/>
<path style="fill:#a1a1a1; stroke:none;" d="M40 111L41 112L40 111z"/>
<path style="fill:#5f5f5f; stroke:none;" d="M41 111L42 112L41 111M52 111L53 112L52 111z"/>
<path style="fill:#fdfdfd; stroke:none;" d="M42 124C50.95 123.968 53.3775 118.019 58 111C50.0508 111.43 44.4728 116.545 42 124z"/>
<path style="fill:#5f5f5f; stroke:none;" d="M58 111L59 112L58 111z"/>
<path style="fill:#303030; stroke:none;" d="M66 111L67 112L66 111z"/>
<path style="fill:#a1a1a1; stroke:none;" d="M67 111L68 112L67 111z"/>
<path style="fill:#fdfdfd; stroke:none;" d="M52 140L70 133C68.0363 124.748 70.6363 118.447 74 111C57.41 111.39 55.1024 127.118 52 140z"/>
<path style="fill:#5f5f5f; stroke:none;" d="M83 111L84 112L83 111z"/>
<path style="fill:#a1a1a1; stroke:none;" d="M84 111L84 112L88 112L84 111z"/>
<path style="fill:#5f5f5f; stroke:none;" d="M88 111L89 112L88 111z"/>
<path style="fill:#303030; stroke:none;" d="M89 111L90 112L89 111z"/>
<path style="fill:#fdfdfd; stroke:none;" d="M98 111C101.364 118.447 103.964 124.748 102 133L120 140C116.915 127.19 114.548 111.398 98 111z"/>
<path style="fill:#a1a1a1; stroke:none;" d="M104 111L105 112L104 111z"/>
<path style="fill:#303030; stroke:none;" d="M105 111L106 112L105 111z"/>
<path style="fill:#5f5f5f; stroke:none;" d="M113 111L116 114L113 111z"/>
<path style="fill:#fdfdfd; stroke:none;" d="M114 111C118.622 118.019 121.05 123.968 130 124C127.527 116.545 121.949 111.43 114 111z"/>
<path style="fill:#5f5f5f; stroke:none;" d="M119 111L120 112L119 111z"/>
<path style="fill:#303030; stroke:none;" d="M129 111L130 112L129 111z"/>
<path style="fill:#5f5f5f; stroke:none;" d="M130 111L129 113L130 111z"/>
<path style="fill:#a1a1a1; stroke:none;" d="M131 111L132 112L131 111z"/>
<path style="fill:#fdfdfd; stroke:none;" d="M130 112C133.016 116.821 135.904 117.134 141 115C137.593 111.962 134.469 111.143 130 112z"/>
<path style="fill:#a1a1a1; stroke:none;" d="M135 111L136 112L135 111z"/>
<path style="fill:#5f5f5f; stroke:none;" d="M136 111L137 112L136 111z"/>
<path style="fill:#303030; stroke:none;" d="M137 111L138 112L137 111z"/>
<path style="fill:#5f5f5f; stroke:none;" d="M33 112L34 113L33 112M42 112L43 113L42 112M50 112L51 113L50 112M57 112L58 113L57 112z"/>
<path style="fill:#a1a1a1; stroke:none;" d="M65 112L66 113L65 112M73 112L74 113L73 112M81 112L82 113L81 112z"/>
<path style="fill:#fdfdfd; stroke:none;" d="M82.0154 112.742C71.8379 116.737 74.2048 132.643 78.4645 140C79.9997 142.652 83.0327 148.74 86.9213 147.654C101.111 143.694 101.211 105.208 82.0154 112.742z"/>
<path style="fill:#a1a1a1; stroke:none;" d="M90 112L91 113L90 112M98 112L99 113L98 112M106 112L107 113L106 112z"/>
<path style="fill:#5f5f5f; stroke:none;" d="M121 112L122 113L121 112M138 112L139 113L138 112z"/>
<path style="fill:#303030; stroke:none;" d="M31 113L32 114L31 113z"/>
<path style="fill:#a1a1a1; stroke:none;" d="M32 113L33 114L32 113M41 113L42 114L41 113M49 113L50 114L49 113z"/>
<path style="fill:#5f5f5f; stroke:none;" d="M56 113L57 114L56 113z"/>
<path style="fill:#303030; stroke:none;" d="M63 113L64 114L63 113M73 113L74 114L73 113z"/>
<path style="fill:#5f5f5f; stroke:none;" d="M79 113L80 114L79 113z"/>
<path style="fill:#303030; stroke:none;" d="M92 113L93 114L92 113M98 113L99 114L98 113z"/>
<path style="fill:#a1a1a1; stroke:none;" d="M107 113L108 114L107 113z"/>
<path style="fill:#303030; stroke:none;" d="M108 113L109 114L108 113z"/>
<path style="fill:#a1a1a1; stroke:none;" d="M122 113L123 114L122 113z"/>
<path style="fill:#303030; stroke:none;" d="M123 113L124 114L123 113z"/>
<path style="fill:#a1a1a1; stroke:none;" d="M130 113L131 114L130 113M139 113L140 114L139 113z"/>
<path style="fill:#303030; stroke:none;" d="M140 113L141 114L140 113M30 114L31 115L30 114M47 114L48 115L47 114z"/>
<path style="fill:#a1a1a1; stroke:none;" d="M55 114L56 115L55 114z"/>
<path style="fill:#303030; stroke:none;" d="M62 114L63 115L62 114M72 114L73 115L72 114z"/>
<path style="fill:#5f5f5f; stroke:none;" d="M78 114L79 115L78 114M93 114L94 115L93 114M99 114L100 115L99 114z"/>
<path style="fill:#303030; stroke:none;" d="M109 114L110 115L109 114z"/>
<path style="fill:#a1a1a1; stroke:none;" d="M116 114L117 115L116 114z"/>
<path style="fill:#303030; stroke:none;" d="M124 114L125 115L124 114z"/>
<path style="fill:#a1a1a1; stroke:none;" d="M131 114L132 115L131 114z"/>
<path style="fill:#303030; stroke:none;" d="M141 114L142 115L141 114z"/>
<path style="fill:#5f5f5f; stroke:none;" d="M31 115L32 116L31 115z"/>
<path style="fill:#303030; stroke:none;" d="M46 115L47 116L46 115z"/>
<path style="fill:#a1a1a1; stroke:none;" d="M54 115L55 116L54 115z"/>
<path style="fill:#303030; stroke:none;" d="M61 115L62 116L61 115z"/>
<path style="fill:#a1a1a1; stroke:none;" d="M71 115L72 116L71 115z"/>
<path style="fill:#5f5f5f; stroke:none;" d="M77 115L78 116L77 115z"/>
<path style="fill:#303030; stroke:none;" d="M94 115L95 116L94 115z"/>
<path style="fill:#a1a1a1; stroke:none;" d="M100 115L101 116L100 115z"/>
<path style="fill:#303030; stroke:none;" d="M110 115L111 116L110 115z"/>
<path style="fill:#a1a1a1; stroke:none;" d="M117 115L118 116L117 115z"/>
<path style="fill:#303030; stroke:none;" d="M125 115L126 116L125 115z"/>
<path style="fill:#5f5f5f; stroke:none;" d="M140 115L141 116L140 115M33 116L34 117L33 116z"/>
<path style="fill:#a1a1a1; stroke:none;" d="M34 116L35 117L34 116z"/>
<path style="fill:#5f5f5f; stroke:none;" d="M39 116L40 117L39 116z"/>
<path style="fill:#303030; stroke:none;" d="M45 116L46 117L45 116M54 116L55 117L54 116M60 116L61 117L60 116z"/>
<path style="fill:#5f5f5f; stroke:none;" d="M71 116L72 117L71 116z"/>
<path style="fill:#303030; stroke:none;" d="M76 116L77 117L76 116z"/>
<path style="fill:#5f5f5f; stroke:none;" d="M100 116L101 117L100 116z"/>
<path style="fill:#303030; stroke:none;" d="M111 116L112 117L111 116M117 116L118 117L117 116M126 116L127 117L126 116z"/>
<path style="fill:#5f5f5f; stroke:none;" d="M132 116L133 117L132 116z"/>
<path style="fill:#a1a1a1; stroke:none;" d="M137 116L138 117L137 116z"/>
<path style="fill:#5f5f5f; stroke:none;" d="M138 116L139 117L138 116z"/>
<path style="fill:#303030; stroke:none;" d="M36 117L37 118L36 117z"/>
<path style="fill:#5f5f5f; stroke:none;" d="M37.6667 117.333L38.3333 117.667L37.6667 117.333z"/>
<path style="fill:#a1a1a1; stroke:none;" d="M45 117L46 118L45 117z"/>
<path style="fill:#5f5f5f; stroke:none;" d="M53 117L54 118L53 117z"/>
<path style="fill:#303030; stroke:none;" d="M59 117L60 118L59 117z"/>
<path style="fill:#5f5f5f; stroke:none;" d="M76 117L77 118L76 117z"/>
<path style="fill:#a1a1a1; stroke:none;" d="M95 117L96 118L95 117z"/>
<path style="fill:#303030; stroke:none;" d="M112 117L113 118L112 117z"/>
<path style="fill:#5f5f5f; stroke:none;" d="M118 117L119 118L118 117z"/>
<path style="fill:#a1a1a1; stroke:none;" d="M126 117L127 118L126 117z"/>
<path style="fill:#5f5f5f; stroke:none;" d="M133.667 117.333L134.333 117.667L133.667 117.333z"/>
<path style="fill:#303030; stroke:none;" d="M135 117L136 118L135 117z"/>
<path style="fill:#a1a1a1; stroke:none;" d="M44 118L45 119L44 118M52 118L53 119L52 118M70 118L71 119L70 118z"/>
<path style="fill:#303030; stroke:none;" d="M96 118L97 119L96 118z"/>
<path style="fill:#a1a1a1; stroke:none;" d="M101 118L102 119L101 118M119 118L120 119L119 118M127 118L128 119L127 118z"/>
<path style="fill:#5f5f5f; stroke:none;" d="M43 119L44 120L43 119z"/>
<path style="fill:#303030; stroke:none;" d="M52 119L53 120L52 119z"/>
<path style="fill:#a1a1a1; stroke:none;" d="M58 119L59 120L58 119z"/>
<path style="fill:#5f5f5f; stroke:none;" d="M70 119L71 120L70 119M75 119L76 120L75 119M96 119L97 120L96 119M101 119L102 120L101 119z"/>
<path style="fill:#a1a1a1; stroke:none;" d="M113 119L114 120L113 119z"/>
<path style="fill:#5f5f5f; stroke:none;" d="M128 119L129 120L128 119z"/>
<path style="fill:#303030; stroke:none;" d="M42 120L43 121L42 120z"/>
<path style="fill:#a1a1a1; stroke:none;" d="M51 120L52 121L51 120z"/>
<path style="fill:#5f5f5f; stroke:none;" d="M57 120L58 121L57 120z"/>
<path style="fill:#a1a1a1; stroke:none;" d="M75 120L76 121L75 120M96 120L97 121L96 120z"/>
<path style="fill:#5f5f5f; stroke:none;" d="M114 120L115 121L114 120z"/>
<path style="fill:#a1a1a1; stroke:none;" d="M120 120L121 121L120 120M42 121L43 122L42 121z"/>
<path style="fill:#303030; stroke:none;" d="M51 121L52 122L51 121M120 121L121 122L120 121z"/>
<path style="fill:#a1a1a1; stroke:none;" d="M129 121L130 122L129 121z"/>
<path style="fill:#303030; stroke:none;" d="M41 122L42 123L41 122z"/>
<path style="fill:#a1a1a1; stroke:none;" d="M50 122L51 123L50 122z"/>
<path style="fill:#5f5f5f; stroke:none;" d="M56 122L57 123L56 122z"/>
<path style="fill:#a1a1a1; stroke:none;" d="M69 122L69 125L70 125L69 122z"/>
<path style="fill:#303030; stroke:none;" d="M74 122L75 123L74 122M97.3333 122.667L97.6667 123.333L97.3333 122.667z"/>
<path style="fill:#a1a1a1; stroke:none;" d="M102 122L102 125L103 125L102 122M115 122L116 123L115 122M121 122L122 123L121 122z"/>
<path style="fill:#303030; stroke:none;" d="M130 122L131 123L130 122z"/>
<path style="fill:#a1a1a1; stroke:none;" d="M41 123L42 124L41 123z"/>
<path style="fill:#5f5f5f; stroke:none;" d="M50 123L51 124L50 123M74.3333 123.667L74.6667 124.333L74.3333 123.667M121 123L122 124L121 123z"/>
<path style="fill:#a1a1a1; stroke:none;" d="M130 123L131 124L130 123z"/>
<path style="fill:#5f5f5f; stroke:none;" d="M41 124L41 125L44 125L41 124z"/>
<path style="fill:#a1a1a1; stroke:none;" d="M44 124L44 125L50 125L44 124z"/>
<path style="fill:#5f5f5f; stroke:none;" d="M55 124L56 125L55 124M97 124L98 125L97 124M116 124L117 125L116 124z"/>
<path style="fill:#a1a1a1; stroke:none;" d="M122 124L122 125L128 125L122 124z"/>
<path style="fill:#5f5f5f; stroke:none;" d="M128 124L129 125L128 124z"/>
<path style="fill:#303030; stroke:none;" d="M129.667 124.333L130.333 124.667L129.667 124.333z"/>
<path style="fill:#5f5f5f; stroke:none;" d="M69 125L70 126L69 125z"/>
<path style="fill:#a1a1a1; stroke:none;" d="M74 125L75 126L74 125M97.3333 125.667L97.6667 126.333L97.3333 125.667z"/>
<path style="fill:#5f5f5f; stroke:none;" d="M102 125L102 128L103 128L102 125M54 126L55 127L54 126z"/>
<path style="fill:#a1a1a1; stroke:none;" d="M69 126L69 132L70 132L69 126z"/>
<path style="fill:#5f5f5f; stroke:none;" d="M74 126L74 130L75 130L74 126z"/>
<path style="fill:#303030; stroke:none;" d="M117 126L118 127L117 126z"/>
<path style="fill:#a1a1a1; stroke:none;" d="M54 127L55 128L54 127z"/>
<path style="fill:#5f5f5f; stroke:none;" d="M97 127L98 128L97 127z"/>
<path style="fill:#a1a1a1; stroke:none;" d="M117 127L118 128L117 127M97 128L98 129L97 128M102 128L103 129L102 128z"/>
<path style="fill:#303030; stroke:none;" d="M53 129L54 130L53 129z"/>
<path style="fill:#5f5f5f; stroke:none;" d="M97 129L98 130L97 129z"/>
<path style="fill:#303030; stroke:none;" d="M101 129L102 130L101 129z"/>
<path style="fill:#5f5f5f; stroke:none;" d="M102 129L103 130L102 129z"/>
<path style="fill:#303030; stroke:none;" d="M118 129L119 130L118 129z"/>
<path style="fill:#5f5f5f; stroke:none;" d="M53 130L54 131L53 130z"/>
<path style="fill:#303030; stroke:none;" d="M74 130L75 131L74 130M97 130L98 131L97 130z"/>
<path style="fill:#a1a1a1; stroke:none;" d="M102.333 130.667L102.667 131.333L102.333 130.667M118.333 130.667L118.667 131.333L118.333 130.667M53 131L54 132L53 131M96.3333 132.667L96.6667 133.333L96.3333 132.667z"/>
<path style="fill:#303030; stroke:none;" d="M52 133L53 134L52 133M69 133L70 134L69 133z"/>
<path style="fill:#a1a1a1; stroke:none;" d="M75 133L76 134L75 133z"/>
<path style="fill:#5f5f5f; stroke:none;" d="M102 133L103 134L102 133z"/>
<path style="fill:#303030; stroke:none;" d="M119 133L120 134L119 133z"/>
<path style="fill:#5f5f5f; stroke:none;" d="M52.3333 134.667L52.6667 135.333L52.3333 134.667z"/>
<path style="fill:#a1a1a1; stroke:none;" d="M67 134L68 135L67 134z"/>
<path style="fill:#303030; stroke:none;" d="M75 134L76 135L75 134M96 134L97 135L96 134z"/>
<path style="fill:#a1a1a1; stroke:none;" d="M104 134L105 135L104 134z"/>
<path style="fill:#5f5f5f; stroke:none;" d="M119.333 134.667L119.667 135.333L119.333 134.667z"/>
<path style="fill:#a1a1a1; stroke:none;" d="M65 135L66 136L65 135z"/>
<path style="fill:#303030; stroke:none;" d="M66 135L67 136L66 135z"/>
<path style="fill:#5f5f5f; stroke:none;" d="M105 135L106 136L105 135z"/>
<path style="fill:#a1a1a1; stroke:none;" d="M106 135L107 136L106 135M52 136L52 139L53 139L52 136M63 136L64 137L63 136z"/>
<path style="fill:#303030; stroke:none;" d="M64 136L65 137L64 136z"/>
<path style="fill:#5f5f5f; stroke:none;" d="M76 136L77 137L76 136M95 136L96 137L95 136M107 136L108 137L107 136z"/>
<path style="fill:#a1a1a1; stroke:none;" d="M108 136L109 137L108 136M119 136L119 139L120 139L119 136z"/>
<path style="fill:#5f5f5f; stroke:none;" d="M61 137L62 138L61 137z"/>
<path style="fill:#303030; stroke:none;" d="M62 137L63 138L62 137M109 137L110 138L109 137z"/>
<path style="fill:#a1a1a1; stroke:none;" d="M110 137L111 138L110 137M58 138L59 139L58 138z"/>
<path style="fill:#303030; stroke:none;" d="M59 138L60 139L59 138z"/>
<path style="fill:#5f5f5f; stroke:none;" d="M77 138L78 139L77 138M94 138L95 139L94 138z"/>
<path style="fill:#303030; stroke:none;" d="M112 138L113 139L112 138z"/>
<path style="fill:#a1a1a1; stroke:none;" d="M113 138L114 139L113 138M54 139L55 140L54 139z"/>
<path style="fill:#5f5f5f; stroke:none;" d="M55 139L56 140L55 139z"/>
<path style="fill:#303030; stroke:none;" d="M56 139L57 140L56 139M115 139L116 140L115 139z"/>
<path style="fill:#5f5f5f; stroke:none;" d="M116 139L117 140L116 139z"/>
<path style="fill:#a1a1a1; stroke:none;" d="M117 139L118 140L117 139z"/>
<path style="fill:#5f5f5f; stroke:none;" d="M78 140L79 141L78 140M93 140L94 141L93 140z"/>
<path style="fill:#a1a1a1; stroke:none;" d="M79 141L80 142L79 141M92 141L93 142L92 141z"/>
<path style="fill:#303030; stroke:none;" d="M79 142L80 143L79 142z"/>
<path style="fill:#5f5f5f; stroke:none;" d="M80 143L81 144L80 143M91 143L92 144L91 143z"/>
<path style="fill:#a1a1a1; stroke:none;" d="M81 144L82 145L81 144M90 144L91 145L90 144z"/>
<path style="fill:#303030; stroke:none;" d="M82 146L83 147L82 146M89 146L90 147L89 146z"/>
<path style="fill:#5f5f5f; stroke:none;" d="M83 147L84 148L83 147M88 147L89 148L88 147M84 148L85 149L84 148M87 148L88 149L87 148M85.6667 149.333L86.3333 149.667L85.6667 149.333z"/>
</svg>
